PathFileType        4      (X/Y/Z)      /Users/FranklinZhao/OpenSimProject/Simulation/Models/Rajapogal_2015/marker_data/trc/transformed_SN001_0010_10m_01.trc         
DataRate	CameraRate	NumFrames	NumMarkers	Units	OrigDataRate	OrigDataStartFrame	OrigNumFrames
200.0	200.0	4	72	mm	200.0	481	641
Frame#	Time	LPSIS			RPSIS			LICR			RICR			LASIS			RASIS			STER			XPRO			C7			T4			T8			T10			RUA1			RUA2			RUA3			RUA4			RHLE			RHME			RTEMP			RHEAD			LHEAD			LTEMP			RACR			LACR			LUA1			LUA2			LUA3			LUA4			LHLE			LHME			LFA1			LFA2			LFA3			LRSP			LUSP			RFA1			RFA2			RFA3			RRSP			RUSP			LTH1			LTH2			LTH3			LTH4			LFLE			LFME			LSK1			LSK2			LSK3			LSK4			LTAM			LFAL			LFCC			LFMT1			LFMT2			LFMT5			RTH1			RTH2			RTH3			RTH4			RFLE			RFME			RSK1			RSK2			RSK3			RSK4			RFAL			RTAM			RFCC			RFMT1			RFMT2			RFMT5			
		X1	Y1	Z1	X2	Y2	Z2	X3	Y3	Z3	X4	Y4	Z4	X5	Y5	Z5	X6	Y6	Z6	X7	Y7	Z7	X8	Y8	Z8	X9	Y9	Z9	X10	Y10	Z10	X11	Y11	Z11	X12	Y12	Z12	X13	Y13	Z13	X14	Y14	Z14	X15	Y15	Z15	X16	Y16	Z16	X17	Y17	Z17	X18	Y18	Z18	X19	Y19	Z19	X20	Y20	Z20	X21	Y21	Z21	X22	Y22	Z22	X23	Y23	Z23	X24	Y24	Z24	X25	Y25	Z25	X26	Y26	Z26	X27	Y27	Z27	X28	Y28	Z28	X29	Y29	Z29	X30	Y30	Z30	X31	Y31	Z31	X32	Y32	Z32	X33	Y33	Z33	X34	Y34	Z34	X35	Y35	Z35	X36	Y36	Z36	X37	Y37	Z37	X38	Y38	Z38	X39	Y39	Z39	X40	Y40	Z40	X41	Y41	Z41	X42	Y42	Z42	X43	Y43	Z43	X44	Y44	Z44	X45	Y45	Z45	X46	Y46	Z46	X47	Y47	Z47	X48	Y48	Z48	X49	Y49	Z49	X50	Y50	Z50	X51	Y51	Z51	X52	Y52	Z52	X53	Y53	Z53	X54	Y54	Z54	X55	Y55	Z55	X56	Y56	Z56	X57	Y57	Z57	X58	Y58	Z58	X59	Y59	Z59	X60	Y60	Z60	X61	Y61	Z61	X62	Y62	Z62	X63	Y63	Z63	X64	Y64	Z64	X65	Y65	Z65	X66	Y66	Z66	X67	Y67	Z67	X68	Y68	Z68	X69	Y69	Z69	X70	Y70	Z70	X71	Y71	Z71	X72	Y72	Z72	
481	2.4	2021.232666015625	1017.294738769531	-233.1381988525393	2021.651123046875	1022.239807128906	-153.8386383056643	2046.54443359375	1075.60986328125	-324.16809082031267	2054.080078125	1101.851318359375	-60.96038055419942	2211.251953125	993.0927124023436	-313.0200500488283	2212.177978515625	996.3564453125	-59.562019348144716	2181.859375	1464.507934570312	-211.70277404785185	2245.33203125	1257.343383789062	-212.30136108398463	2049.837646484375	1564.12353515625	-199.50663757324247	1996.097045898438	1451.847045898438	-201.54457092285185	1996.618408203125	1319.818603515625	-196.41438293457057	2000.849609375	1275.057373046875	-199.96040344238304	2083.95068359375	1351.635986328125	49.14513778686498	2155.7607421875	1348.283203125	28.808410644531	2167.552490234375	1275.969848632812	40.180995941161875	2096.92529296875	1267.805541992188	62.09392166137672	2124.907470703125	1180.734375	60.31599807739236	2102.301025390625	1169.415893554688	-17.696470260620334	2214.26123046875	1718.758911132812	-132.19541931152372	2257.470947265625	1726.72119140625	-167.91380310058622	2256.672607421875	1721.873046875	-249.87974548339872	2207.081298828125	1706.979248046875	-287.26480102539097	2105.223388671875	1519.395751953125	-22.25939178466825	2077.139404296875	1518.111083984375	-390.8412475585941	2090.311279296875	1356.881958007812	-445.8472290039064	2014.921997070312	1348.172485351562	-441.0948486328127	2011.648559570312	1262.823120117188	-455.96820068359403	2085.703369140625	1270.89013671875	-459.2392578125002	2041.574096679688	1188.443725585938	-460.1917114257814	2017.139038085938	1176.748046875	-390.2869262695314	2157.34619140625	979.3730468749999	-453.6791076660158	2143.0888671875	981.7343749999999	-498.35498046875017	2141.45556640625	950.6509399414061	-465.59356689453136	2126.402587890625	914.7675781249999	-428.09802246093767	2094.278564453125	912.9176025390624	-491.70162963867205	2259.68896484375	1036.567749023438	99.78225708007794	2283.693115234375	1040.875366210938	60.73120880126934	2280.27490234375	1007.924621582031	71.77798461914044	2302.251708984375	958.4053955078125	42.793342590331854	2261.048583984375	949.9232177734375	93.1343917846678	2279.37548828125	738.8773803710936	-360.3294372558595	2233.66357421875	717.5756225585936	-359.0182495117189	2272.19921875	617.8348388671874	-342.4838867187501	2329.160400390625	649.7766113281249	-348.86746215820324	2335.699951171875	548.2359619140624	-328.9866943359376	2330.0751953125	539.9341430664062	-211.1845092773439	2253.546630859375	390.59063720703114	-346.8493957519532	2201.96923828125	426.02111816406244	-342.08489990234386	2152.61376953125	355.8356628417968	-325.7765197753907	2207.8798828125	322.46923828124994	-333.35839843750006	2115.5107421875	185.33695983886716	-219.08279418945312	2071.024658203125	194.10125732421875	-292.54293823242193	2025.66650390625	175.64874267578114	-234.76268005371094	2198.613037109375	69.81379699707027	-252.4413757324219	2195.5556640625	72.50116729736322	-281.6928100585938	2155.121337890625	83.42101287841791	-323.3243713378906	2107.9609375	741.5743408203125	-30.037038803100724	2163.617431640625	719.7142944335938	-37.20634460449232	2159.067138671875	634.5712890625	-55.120918273925895	2095.501953125	642.1707763671875	-52.3381919860841	2092.05322265625	532.8455810546875	-75.65756225585947	2091.0537109375	513.3619995117188	-197.25602722167977	2022.455078125	357.6012268066406	-66.7873611450196	2079.9267578125	372.0600280761719	-61.08956527709968	2078.37939453125	265.021240234375	-81.50901794433598	2014.54296875	275.6397094726562	-78.84803009033209	2010.278198242188	74.67366027832028	-131.3935394287109	2055.064453125	95.95827484130855	-203.26960754394534	1978.629760742188	49.336460113525355	-183.7046813964844	2175.863525390625	32.91130828857419	-164.9929504394531	2179.885986328125	29.181564331054666	-126.6854934692383	2134.154052734375	19.921815872192365	-79.76676177978516	
482	2.405	2029.180786132812	1016.331970214844	-233.2317047119143	2029.387451171875	1021.342224121094	-153.8021697998049	2054.788818359375	1074.589111328125	-324.101257324219	2061.306396484375	1100.873901367188	-61.063488006591996	2219.398681640625	992.2637329101561	-312.62106323242205	2219.405517578125	995.4016723632812	-58.81260681152362	2188.826416015625	1463.15185546875	-211.99720764160185	2253.029541015625	1256.218505859375	-211.91270446777364	2058.4423828125	1563.49462890625	-199.5716400146487	2005.40087890625	1451.524169921875	-200.41500854492216	2004.8671875	1319.234252929688	-195.99980163574244	2008.85888671875	1274.617797851562	-199.58296203613304	2093.54931640625	1351.595092773438	49.86852645873998	2165.35546875	1348.336669921875	29.37893486022924	2177.362060546875	1276.14501953125	40.987277984618906	2106.76806640625	1267.796997070312	63.29865264892555	2135.421875	1180.9873046875	61.893241882324	2112.557861328125	1168.6982421875	-15.865008354187225	2222.841064453125	1718.025024414062	-132.56610107421912	2266.108154296875	1725.956176757812	-168.27865600585972	2265.241943359375	1720.923095703125	-250.29196166992222	2215.636962890625	1706.02685546875	-287.71166992187534	2114.351318359375	1518.994873046875	-22.26832199096708	2085.52099609375	1516.983642578125	-390.97518920898466	2097.3916015625	1355.282836914062	-445.5786743164064	2022.02734375	1347.2041015625	-440.3801879882814	2018.295654296875	1261.82666015625	-454.9357604980471	2092.066650390625	1269.201049804688	-458.25772094726585	2047.3037109375	1187.239379882812	-459.0557861328127	2022.745361328125	1176.188842773438	-389.32562255859403	2158.47509765625	975.6198120117186	-451.723571777344	2145.197265625	978.6436157226561	-496.55648803710955	2142.19970703125	947.3194580078124	-463.97241210937517	2125.06494140625	911.3606567382811	-426.5715637207033	2094.376708984375	910.7828369140624	-490.790222167969	2273.244140625	1039.222534179688	100.00714111328101	2297.131103515625	1044.252563476562	60.78411865234356	2294.47314453125	1011.093566894531	71.76132202148419	2316.986083984375	962.1090698242188	42.446086883544744	2276.37158203125	952.5772094726562	93.16128540039045	2290.227294921875	739.7662353515624	-359.5346069335939	2244.56005859375	717.8616333007811	-358.60098266601574	2284.027587890625	618.5448608398436	-342.48684692382824	2340.4833984375	651.3235473632811	-348.36209106445324	2347.81982421875	549.4888916015624	-328.76602172851574	2342.0	541.0223388671875	-211.05387878417977	2269.2998046875	389.52148437499994	-346.72753906250006	2217.156982421875	423.24322509765614	-341.79132080078125	2169.44580078125	351.65225219726557	-325.5637512207032	2225.638427734375	319.97100830078114	-333.1164855957032	2137.7451171875	179.83398437499997	-218.64575195312503	2093.328125	187.23478698730463	-291.9066467285157	2048.193115234375	167.35342407226554	-234.05944824218753	2225.0537109375	67.82653808593746	-251.6326446533203	2221.623291015625	70.40208435058588	-280.882568359375	2180.7158203125	79.80432891845697	-322.6438293457031	2112.569091796875	741.395751953125	-29.892501831054826	2167.96875	719.018310546875	-36.75049209594741	2163.00537109375	633.9343872070312	-54.586929321289176	2099.009521484375	642.2981567382812	-52.27109146118176	2094.316162109375	533.0094604492188	-75.65742492675791	2093.68310546875	513.57568359375	-197.31901550292977	2023.559936523438	358.1387634277344	-67.35276794433601	2080.713134765625	372.947509765625	-60.88190460205085	2079.10107421875	265.3069763183594	-81.81310272216801	2015.122192382812	276.2377624511719	-79.65929412841803	2010.7578125	75.25541687011716	-132.4096221923828	2055.820068359375	96.52019500732418	-203.89898681640622	1979.102783203125	49.96541213989254	-185.0174102783203	2176.62158203125	32.847785949707	-164.8321685791016	2180.10693359375	29.050655364990206	-126.6221618652344	2134.186279296875	20.002305984497056	-80.04396057128906	
483	2.41	2037.106567382812	1015.302185058594	-233.5137023925783	2037.091918945312	1020.255065917969	-154.0811462402346	2062.90478515625	1073.388305664062	-324.04089355468767	2068.4072265625	1099.95166015625	-61.03049087524434	2227.753173828125	991.2333984374999	-312.2468566894533	2227.04052734375	993.9832763671875	-58.11372756958026	2197.4453125	1461.91259765625	-212.15977478027366	2261.44873046875	1254.960571289062	-211.61871337890642	2067.06005859375	1562.595703125	-199.6829681396487	2013.898803710938	1450.625732421875	-200.11102294921906	2012.751220703125	1318.552734375	-195.60670471191435	2016.846557617188	1273.75634765625	-199.12567138671903	2103.214111328125	1351.498168945312	50.555946350097415	2174.83544921875	1348.141479492188	29.766168594360103	2187.152099609375	1276.118041992188	41.9417572021482	2116.690673828125	1267.703735351562	64.52548217773415	2145.913818359375	1180.80615234375	63.56558990478494	2122.488037109375	1168.255004882812	-14.010843276977756	2231.69189453125	1717.089965820312	-133.06185913085972	2274.932373046875	1724.861083984375	-168.72605895996122	2273.888427734375	1719.90185546875	-250.6698150634769	2224.187255859375	1705.057006835938	-288.0476989746097	2123.43310546875	1518.492919921875	-22.29740142822294	2093.969482421875	1515.442260742188	-391.1621398925784	2104.579833984375	1353.57177734375	-444.9943542480471	2028.684204101562	1346.02392578125	-439.6333618164064	2024.84423828125	1260.628662109375	-453.7040710449221	2098.276123046875	1267.401000976562	-457.9419860839846	2053.046630859375	1185.832397460938	-457.8422851562502	2028.17236328125	1175.504516601562	-387.9500122070314	2159.722900390625	971.6774291992186	-449.57836914062517	2147.205078125	975.3452758789061	-494.7922668457033	2142.787841796875	944.0966186523436	-462.08395385742205	2124.381591796875	908.6751098632811	-425.20343017578136	2094.577880859375	908.7760620117186	-489.86065673828136	2286.607666015625	1041.750732421875	100.18641662597642	2310.756103515625	1047.207763671875	60.70145797729473	2308.1396484375	1013.943908691406	71.62219238281232	2331.45263671875	965.736572265625	42.085487365722486	2291.663818359375	955.2977294921875	93.19553375244124	2300.533203125	740.7249145507811	-359.0029296875001	2255.307861328125	718.2394409179686	-358.54776000976574	2295.55810546875	619.4514770507811	-342.8251342773439	2351.704833984375	652.5776367187499	-348.0187988281251	2359.708251953125	550.7869873046874	-328.596649169922	2353.766357421875	541.9531860351562	-211.1346435546876	2285.015869140625	388.06518554687494	-346.58551025390625	2231.822998046875	420.52029418945307	-342.11279296875006	2186.5048828125	347.30801391601557	-324.95532226562506	2243.389892578125	317.3759460449218	-332.7796936035157	2161.26416015625	174.75157165527338	-217.08517456054693	2115.14208984375	180.69787597656244	-291.60614013671886	2070.930908203125	159.14157104492185	-233.32469177246094	2251.554931640625	65.94766998291011	-250.8567199707031	2247.777099609375	68.29821014404291	-280.1336059570312	2206.334228515625	76.12836456298822	-321.9992065429688	2116.833984375	741.223876953125	-30.255207061767717	2172.268798828125	718.4566040039062	-36.40980911254896	2166.255126953125	633.2806396484375	-54.383487701416136	2102.511962890625	642.3495483398438	-52.35321044921887	2097.22607421875	532.9760131835938	-75.58879852294932	2096.62841796875	513.7838745117188	-197.2503204345704	2024.927734375	358.5397338867188	-68.02359771728523	2081.6708984375	373.0862731933594	-61.44055175781257	2079.870361328125	265.523681640625	-82.09210205078129	2016.155883789062	276.7564697265625	-80.18962097167974	2011.141967773438	75.61967468261716	-133.2819671630859	2055.898193359375	96.48050689697261	-204.76573181152344	1979.654052734375	50.377902984619105	-186.1940765380859	2176.662109375	32.714282989501925	-165.0303802490234	2180.330322265625	28.940105438232393	-126.5248718261719	2134.255615234375	20.075481414794904	-80.43357849121094	
484	2.415	2045.123657226562	1013.917846679688	-233.6285705566408	2044.808227539062	1018.87939453125	-154.0401000976564	2070.96728515625	1071.995971679688	-324.0857238769533	2075.5859375	1098.592529296875	-61.18799209594747	2236.05224609375	990.1077270507811	-311.8077697753908	2234.480224609375	992.9894409179688	-57.43935394287127	2206.09814453125	1460.436645507812	-212.17254638671906	2269.609375	1253.568725585938	-211.40655517578142	2075.77294921875	1561.428588867188	-199.82350158691438	2022.375366210938	1449.57861328125	-199.88752746582057	2020.821899414062	1317.588256835938	-195.17315673828145	2024.888427734375	1272.79443359375	-198.90486145019554	2112.76611328125	1351.011596679688	51.10203170776342	2184.79931640625	1347.805908203125	30.075874328613033	2196.869384765625	1276.137084960938	42.997001647948984	2126.64990234375	1267.583129882812	65.74879455566384	2156.860595703125	1180.504760742188	64.96440124511697	2132.826171875	1167.404052734375	-12.370294570923065	2240.419189453125	1716.068725585938	-133.40104675293	2283.479248046875	1723.900146484375	-169.2018127441409	2282.5546875	1718.7978515625	-251.12956237793	2232.7705078125	1703.784912109375	-288.43994140625034	2132.4931640625	1517.685302734375	-22.313480377197546	2102.43603515625	1514.02783203125	-391.30477905273466	2111.777099609375	1351.804565429688	-444.6586608886721	2035.880249023438	1344.88134765625	-439.04190063476585	2031.265380859375	1259.334716796875	-452.5723876953127	2104.6640625	1265.692993164062	-457.48553466796903	2058.837158203125	1184.583129882812	-456.69964599609403	2033.853759765625	1174.63525390625	-387.0094909667971	2160.867919921875	967.9967041015624	-447.4259338378908	2149.208251953125	971.9883422851561	-492.8811340332033	2143.5322265625	940.6925659179686	-460.2901916503908	2123.62451171875	906.0914306640624	-423.7138977050783	2094.7099609375	906.9133911132811	-488.824890136719	2300.154052734375	1044.26220703125	100.41846466064432	2323.62451171875	1050.290771484375	60.76599502563458	2321.9755859375	1017.071044921875	71.61851501464825	2346.262939453125	969.3391723632812	41.801124572753736	2307.168212890625	958.0777587890625	93.21791076660139	2310.87841796875	741.2858276367186	-358.9843750000001	2265.812744140625	718.5225219726561	-359.0545349121095	2307.13720703125	619.8954467773436	-342.59133911132824	2362.66064453125	653.6342773437499	-347.7327880859376	2371.3525390625	551.7817993164061	-328.4170532226563	2364.89111328125	542.3849487304688	-210.98265075683602	2300.6015625	386.74258422851557	-346.42712402343756	2246.430908203125	417.33068847656244	-341.9563293457032	2203.590576171875	343.27151489257807	-325.32354736328125	2261.181884765625	314.71142578124994	-332.49362182617193	2183.90771484375	169.79069519042966	-216.29945373535162	2136.896240234375	173.60029602050776	-291.18490600585943	2093.98291015625	150.74946594238276	-232.70915222167972	2278.029541015625	64.22021484374996	-250.2138671875	2274.06884765625	66.2557983398437	-279.4697875976562	2232.08837890625	72.68210601806635	-321.531005859375	2121.353515625	740.9617919921875	-30.847545623779435	2176.448486328125	717.6989135742188	-36.100883483886854	2169.689697265625	632.6939697265625	-54.005126953125114	2106.01220703125	642.3604736328125	-52.3261184692384	2099.74462890625	533.0271606445312	-75.62104797363291	2099.4892578125	513.9863891601562	-197.28836059570318	2026.063720703125	359.0564880371094	-68.69918823242195	2082.837646484375	373.4342346191406	-61.73943328857429	2080.400390625	265.8439331054688	-82.38549804687504	2017.19482421875	277.3821105957031	-80.75721740722662	2011.484252929688	76.04920959472653	-134.2441864013672	2056.62451171875	96.89159393310543	-205.82904052734384	1980.222900390625	50.89157867431638	-187.5643005371094	2177.3955078125	32.60211181640622	-164.8970642089844	2180.875732421875	28.867013931274386	-126.3281173706055	2134.298583984375	20.188634872436506	-80.72898864746094	
